MutatorSansInstance_200-600.ufo
<glyph name="comma" format="2">
  <advance width="252"/>
  <unicode hex="002C"/>
  <outline>
    <contour>
      <point x="165" y="0" type="line"/>
      <point x="165" y="204" type="line"/>
      <point x="87" y="204" type="line"/>
      <point x="87" y="0" type="line"/>
      <point x="129" y="-10" type="line"/>
      <point x="118" y="12" type="line"/>
      <point x="96" y="-103" type="line"/>
      <point x="120" y="-105" type="line"/>
    </contour>
  </outline>
</glyph>
<glyph name="A" format="2">
  <advance width="918"/>
  <unicode hex="0041"/>
  <outline>
    <contour>
      <point x="38" y="0" type="line"/>
      <point x="133" y="0" type="line"/>
      <point x="463" y="720" type="line"/>
      <point x="381" y="720" type="line"/>
    </contour>
    <contour>
      <point x="180" y="184" type="line"/>
      <point x="722" y="184" type="line"/>
      <point x="722" y="253" type="line"/>
      <point x="180" y="253" type="line"/>
    </contour>
    <contour>
      <point x="760" y="0" type="line"/>
      <point x="883" y="0" type="line"/>
      <point x="540" y="720" type="line"/>
      <point x="425" y="720" type="line"/>
    </contour>
    <contour>
      <point x="397" y="638" type="line"/>
      <point x="515" y="638" type="line"/>
      <point x="515" y="720" type="line"/>
      <point x="397" y="720" type="line"/>
    </contour>
  </outline>
</glyph>
<glyph name="B" format="2">
  <advance width="918"/>
  <unicode hex="0042"/>
  <outline>
    <contour>
      <point x="86" y="0" type="line"/>
      <point x="194" y="0" type="line"/>
      <point x="194" y="720" type="line"/>
      <point x="86" y="720" type="line"/>
    </contour>
    <contour>
      <point x="169" y="335" type="line"/>
      <point x="611" y="335" type="line" smooth="yes"/>
      <point x="709" y="335"/>
      <point x="757" y="282"/>
      <point x="757" y="204" type="curve" smooth="yes"/>
      <point x="757" y="126"/>
      <point x="708" y="76"/>
      <point x="608" y="76" type="curve" smooth="yes"/>
      <point x="169" y="76" type="line"/>
      <point x="169" y="0" type="line"/>
      <point x="625" y="0" type="line" smooth="yes"/>
      <point x="802" y="0"/>
      <point x="863" y="84"/>
      <point x="863" y="192" type="curve" smooth="yes"/>
      <point x="863" y="290"/>
      <point x="810" y="362"/>
      <point x="694" y="377" type="curve"/>
      <point x="686" y="353" type="line"/>
      <point x="775" y="374"/>
      <point x="824" y="440"/>
      <point x="824" y="526" type="curve" smooth="yes"/>
      <point x="824" y="637"/>
      <point x="764" y="720"/>
      <point x="585" y="720" type="curve" smooth="yes"/>
      <point x="169" y="720" type="line"/>
      <point x="169" y="646" type="line"/>
      <point x="571" y="646" type="line" smooth="yes"/>
      <point x="675" y="646"/>
      <point x="718" y="595"/>
      <point x="718" y="519" type="curve" smooth="yes"/>
      <point x="718" y="440"/>
      <point x="670" y="390"/>
      <point x="571" y="390" type="curve" smooth="yes"/>
      <point x="169" y="390" type="line"/>
    </contour>
  </outline>
</glyph>
<glyph name="C" format="2">
  <advance width="1016"/>
  <unicode hex="0043"/>
  <outline>
    <contour>
      <point x="849" y="291" type="line"/>
      <point x="823" y="133"/>
      <point x="706" y="72"/>
      <point x="531" y="72" type="curve" smooth="yes"/>
      <point x="492" y="72" type="line" smooth="yes"/>
      <point x="295" y="72"/>
      <point x="170" y="152"/>
      <point x="170" y="362" type="curve" smooth="yes"/>
      <point x="170" y="570"/>
      <point x="295" y="648"/>
      <point x="492" y="648" type="curve" smooth="yes"/>
      <point x="531" y="648" type="line" smooth="yes"/>
      <point x="705" y="648"/>
      <point x="821" y="590"/>
      <point x="848" y="436" type="curve"/>
      <point x="954" y="447" type="line"/>
      <point x="921" y="643"/>
      <point x="767" y="730"/>
      <point x="538" y="730" type="curve" smooth="yes"/>
      <point x="485" y="730" type="line" smooth="yes"/>
      <point x="224" y="730"/>
      <point x="61" y="618"/>
      <point x="61" y="362" type="curve" smooth="yes"/>
      <point x="61" y="105"/>
      <point x="224" y="-10"/>
      <point x="485" y="-10" type="curve" smooth="yes"/>
      <point x="538" y="-10" type="line" smooth="yes"/>
      <point x="768" y="-10"/>
      <point x="923" y="80"/>
      <point x="955" y="280" type="curve"/>
    </contour>
  </outline>
</glyph>
<glyph name="D" format="2">
  <advance width="929"/>
  <unicode hex="0044"/>
  <outline>
    <contour>
      <point x="86" y="0" type="line"/>
      <point x="192" y="0" type="line"/>
      <point x="192" y="720" type="line"/>
      <point x="86" y="720" type="line"/>
    </contour>
    <contour>
      <point x="167" y="640" type="line"/>
      <point x="424" y="640" type="line" smooth="yes"/>
      <point x="628" y="640"/>
      <point x="759" y="570"/>
      <point x="759" y="362" type="curve" smooth="yes"/>
      <point x="759" y="152"/>
      <point x="628" y="80"/>
      <point x="424" y="80" type="curve" smooth="yes"/>
      <point x="167" y="80" type="line"/>
      <point x="167" y="0" type="line"/>
      <point x="431" y="0" type="line" smooth="yes"/>
      <point x="697" y="0"/>
      <point x="868" y="105"/>
      <point x="868" y="362" type="curve" smooth="yes"/>
      <point x="868" y="618"/>
      <point x="697" y="720"/>
      <point x="431" y="720" type="curve" smooth="yes"/>
      <point x="167" y="720" type="line"/>
    </contour>
  </outline>
</glyph>
<glyph name="E" format="2">
  <advance width="843"/>
  <unicode hex="0045"/>
  <anchor x="416" y="765" name="top"/>
  <outline>
    <contour>
      <point x="87" y="0" type="line"/>
      <point x="193" y="0" type="line"/>
      <point x="193" y="720" type="line"/>
      <point x="87" y="720" type="line"/>
    </contour>
    <contour>
      <point x="121" y="637" type="line"/>
      <point x="763" y="637" type="line"/>
      <point x="763" y="720" type="line"/>
      <point x="121" y="720" type="line"/>
    </contour>
    <contour>
      <point x="121" y="0" type="line"/>
      <point x="763" y="0" type="line"/>
      <point x="763" y="83" type="line"/>
      <point x="121" y="83" type="line"/>
    </contour>
    <contour>
      <point x="121" y="330" type="line"/>
      <point x="670" y="330" type="line"/>
      <point x="670" y="393" type="line"/>
      <point x="121" y="393" type="line"/>
    </contour>
  </outline>
</glyph>
<glyph name="F" format="2">
  <advance width="870"/>
  <unicode hex="0046"/>
  <outline>
    <contour>
      <point x="86" y="0" type="line"/>
      <point x="194" y="0" type="line"/>
      <point x="194" y="720" type="line"/>
      <point x="86" y="720" type="line"/>
    </contour>
    <contour>
      <point x="121" y="639" type="line"/>
      <point x="784" y="639" type="line"/>
      <point x="784" y="720" type="line"/>
      <point x="121" y="720" type="line"/>
    </contour>
    <contour>
      <point x="121" y="292" type="line"/>
      <point x="753" y="292" type="line"/>
      <point x="753" y="365" type="line"/>
      <point x="121" y="365" type="line"/>
    </contour>
  </outline>
</glyph>
<glyph name="G" format="2">
  <advance width="1057"/>
  <unicode hex="0047"/>
  <outline>
    <contour>
      <point x="416" y="302" type="line"/>
      <point x="877" y="302" type="line"/>
      <point x="877" y="216" type="line"/>
      <point x="920" y="0" type="line"/>
      <point x="976" y="0" type="line"/>
      <point x="976" y="349" type="line"/>
      <point x="416" y="349" type="line"/>
    </contour>
    <contour>
      <point x="874" y="299" type="line"/>
      <point x="849" y="134"/>
      <point x="731" y="72"/>
      <point x="555" y="72" type="curve" smooth="yes"/>
      <point x="492" y="72" type="line" smooth="yes"/>
      <point x="295" y="72"/>
      <point x="170" y="152"/>
      <point x="170" y="362" type="curve" smooth="yes"/>
      <point x="170" y="570"/>
      <point x="298" y="648"/>
      <point x="496" y="648" type="curve" smooth="yes"/>
      <point x="559" y="648" type="line" smooth="yes"/>
      <point x="733" y="648"/>
      <point x="847" y="590"/>
      <point x="874" y="436" type="curve"/>
      <point x="978" y="447" type="line"/>
      <point x="944" y="643"/>
      <point x="793" y="730"/>
      <point x="565" y="730" type="curve" smooth="yes"/>
      <point x="488" y="730" type="line" smooth="yes"/>
      <point x="227" y="730"/>
      <point x="61" y="618"/>
      <point x="61" y="362" type="curve" smooth="yes"/>
      <point x="61" y="105"/>
      <point x="224" y="-10"/>
      <point x="485" y="-10" type="curve" smooth="yes"/>
      <point x="541" y="-10" type="line" smooth="yes"/>
      <point x="770" y="-10"/>
      <point x="916" y="81"/>
      <point x="944" y="287" type="curve"/>
    </contour>
  </outline>
</glyph>
<glyph name="H" format="2">
  <advance width="918"/>
  <unicode hex="0048"/>
  <outline>
    <contour>
      <point x="86" y="0" type="line"/>
      <point x="194" y="0" type="line"/>
      <point x="194" y="720" type="line"/>
      <point x="86" y="720" type="line"/>
    </contour>
    <contour>
      <point x="133" y="320" type="line"/>
      <point x="788" y="320" type="line"/>
      <point x="788" y="401" type="line"/>
      <point x="133" y="401" type="line"/>
    </contour>
    <contour>
      <point x="723" y="0" type="line"/>
      <point x="831" y="0" type="line"/>
      <point x="831" y="720" type="line"/>
      <point x="723" y="720" type="line"/>
    </contour>
  </outline>
</glyph>
<glyph name="I" format="2">
  <advance width="716"/>
  <unicode hex="0049"/>
  <outline>
    <contour>
      <point x="306" y="0" type="line"/>
      <point x="414" y="0" type="line"/>
      <point x="414" y="720" type="line"/>
      <point x="306" y="720" type="line"/>
    </contour>
    <contour>
      <point x="86" y="636" type="line"/>
      <point x="630" y="636" type="line"/>
      <point x="630" y="720" type="line"/>
      <point x="86" y="720" type="line"/>
    </contour>
    <contour>
      <point x="86" y="0" type="line"/>
      <point x="630" y="0" type="line"/>
      <point x="630" y="84" type="line"/>
      <point x="86" y="84" type="line"/>
    </contour>
  </outline>
</glyph>
<glyph name="J" format="2">
  <advance width="702"/>
  <unicode hex="004A"/>
  <outline>
    <contour>
      <point x="221" y="-10" type="curve" smooth="yes"/>
      <point x="464" y="-10"/>
      <point x="616" y="92"/>
      <point x="616" y="319" type="curve" smooth="yes"/>
      <point x="616" y="720" type="line"/>
      <point x="506" y="720" type="line"/>
      <point x="506" y="328" type="line" smooth="yes"/>
      <point x="506" y="147"/>
      <point x="396" y="77"/>
      <point x="218" y="77" type="curve" smooth="yes"/>
      <point x="180" y="77"/>
      <point x="141" y="81"/>
      <point x="105" y="89" type="curve"/>
      <point x="86" y="3" type="line"/>
      <point x="127" y="-6"/>
      <point x="172" y="-10"/>
    </contour>
  </outline>
</glyph>
<glyph name="K" format="2">
  <advance width="849"/>
  <unicode hex="004B"/>
  <outline>
    <contour>
      <point x="86" y="0" type="line"/>
      <point x="194" y="0" type="line"/>
      <point x="194" y="720" type="line"/>
      <point x="86" y="720" type="line"/>
    </contour>
    <contour>
      <point x="153" y="311" type="line"/>
      <point x="242" y="311" type="line"/>
      <point x="652" y="0" type="line"/>
      <point x="800" y="0" type="line"/>
      <point x="321" y="381" type="line"/>
      <point x="253" y="366" type="line"/>
      <point x="153" y="366" type="line"/>
    </contour>
    <contour>
      <point x="222" y="348" type="line"/>
      <point x="296" y="317" type="line"/>
      <point x="796" y="720" type="line"/>
      <point x="666" y="720" type="line"/>
    </contour>
  </outline>
</glyph>
<glyph name="L" format="2">
  <advance width="756"/>
  <unicode hex="004C"/>
  <outline>
    <contour>
      <point x="86" y="0" type="line"/>
      <point x="194" y="0" type="line"/>
      <point x="194" y="720" type="line"/>
      <point x="86" y="720" type="line"/>
    </contour>
    <contour>
      <point x="121" y="0" type="line"/>
      <point x="724" y="0" type="line"/>
      <point x="724" y="82" type="line"/>
      <point x="121" y="82" type="line"/>
    </contour>
  </outline>
</glyph>
<glyph name="M" format="2">
  <advance width="991"/>
  <unicode hex="004D"/>
  <outline>
    <contour>
      <point x="86" y="0" type="line"/>
      <point x="177" y="0" type="line"/>
      <point x="177" y="720" type="line"/>
      <point x="86" y="720" type="line"/>
    </contour>
    <contour>
      <point x="904" y="0" type="line"/>
      <point x="904" y="720" type="line"/>
      <point x="814" y="720" type="line"/>
      <point x="814" y="0" type="line"/>
    </contour>
    <contour>
      <point x="855" y="610" type="line"/>
      <point x="814" y="720" type="line"/>
      <point x="476" y="344" type="line"/>
      <point x="515" y="344" type="line"/>
      <point x="177" y="720" type="line"/>
      <point x="136" y="610" type="line"/>
      <point x="472" y="237" type="line"/>
      <point x="519" y="237" type="line"/>
    </contour>
  </outline>
</glyph>
<glyph name="N" format="2">
  <advance width="934"/>
  <unicode hex="004E"/>
  <outline>
    <contour>
      <point x="86" y="0" type="line"/>
      <point x="175" y="0" type="line"/>
      <point x="175" y="720" type="line"/>
      <point x="86" y="720" type="line"/>
    </contour>
    <contour>
      <point x="133" y="622" type="line"/>
      <point x="758" y="0" type="line"/>
      <point x="802" y="99" type="line"/>
      <point x="175" y="720" type="line"/>
    </contour>
    <contour>
      <point x="759" y="0" type="line"/>
      <point x="847" y="0" type="line"/>
      <point x="847" y="720" type="line"/>
      <point x="759" y="720" type="line"/>
    </contour>
  </outline>
</glyph>
<glyph name="O" format="2">
  <advance width="1028"/>
  <unicode hex="004F"/>
  <outline>
    <contour>
      <point x="485" y="-10" type="curve" smooth="yes"/>
      <point x="543" y="-10" type="line" smooth="yes"/>
      <point x="803" y="-10"/>
      <point x="967" y="105"/>
      <point x="967" y="362" type="curve" smooth="yes"/>
      <point x="967" y="618"/>
      <point x="803" y="730"/>
      <point x="543" y="730" type="curve" smooth="yes"/>
      <point x="485" y="730" type="line" smooth="yes"/>
      <point x="224" y="730"/>
      <point x="61" y="618"/>
      <point x="61" y="362" type="curve" smooth="yes"/>
      <point x="61" y="105"/>
      <point x="224" y="-10"/>
    </contour>
    <contour>
      <point x="492" y="72" type="line" smooth="yes"/>
      <point x="295" y="72"/>
      <point x="170" y="152"/>
      <point x="170" y="362" type="curve" smooth="yes"/>
      <point x="170" y="570"/>
      <point x="295" y="648"/>
      <point x="492" y="648" type="curve" smooth="yes"/>
      <point x="536" y="648" type="line" smooth="yes"/>
      <point x="734" y="648"/>
      <point x="858" y="570"/>
      <point x="858" y="362" type="curve" smooth="yes"/>
      <point x="858" y="152"/>
      <point x="734" y="72"/>
      <point x="536" y="72" type="curve" smooth="yes"/>
    </contour>
  </outline>
</glyph>
<glyph name="P" format="2">
  <advance width="857"/>
  <unicode hex="0050"/>
  <outline>
    <contour>
      <point x="86" y="0" type="line"/>
      <point x="194" y="0" type="line"/>
      <point x="194" y="720" type="line"/>
      <point x="86" y="720" type="line"/>
    </contour>
    <contour>
      <point x="152" y="633" type="line"/>
      <point x="466" y="633" type="line" smooth="yes"/>
      <point x="660" y="633"/>
      <point x="724" y="560"/>
      <point x="724" y="439" type="curve" smooth="yes"/>
      <point x="724" y="317"/>
      <point x="660" y="245"/>
      <point x="466" y="245" type="curve" smooth="yes"/>
      <point x="152" y="245" type="line"/>
      <point x="152" y="158" type="line"/>
      <point x="456" y="158" type="line" smooth="yes"/>
      <point x="751" y="158"/>
      <point x="824" y="277"/>
      <point x="824" y="439" type="curve" smooth="yes"/>
      <point x="824" y="602"/>
      <point x="751" y="720"/>
      <point x="456" y="720" type="curve" smooth="yes"/>
      <point x="152" y="720" type="line"/>
    </contour>
  </outline>
</glyph>
<glyph name="Q" format="2">
  <advance width="1028"/>
  <unicode hex="0051"/>
  <outline>
    <contour>
      <point x="545" y="-130" type="line"/>
      <point x="656" y="-130" type="line"/>
      <point x="551" y="44" type="line"/>
      <point x="452" y="30" type="line"/>
    </contour>
    <component base="O"/>
  </outline>
</glyph>
<glyph name="R" format="2">
  <advance width="890"/>
  <unicode hex="0052"/>
  <outline>
    <contour>
      <point x="697" y="0" type="line"/>
      <point x="821" y="0" type="line"/>
      <point x="717" y="116" type="line" smooth="yes"/>
      <point x="659" y="174"/>
      <point x="622" y="202"/>
      <point x="580" y="201" type="curve"/>
      <point x="515" y="201" type="line"/>
    </contour>
    <contour>
      <point x="86" y="0" type="line"/>
      <point x="194" y="0" type="line"/>
      <point x="194" y="720" type="line"/>
      <point x="86" y="720" type="line"/>
    </contour>
    <contour>
      <point x="152" y="633" type="line"/>
      <point x="472" y="633" type="line" smooth="yes"/>
      <point x="661" y="633"/>
      <point x="723" y="560"/>
      <point x="723" y="439" type="curve" smooth="yes"/>
      <point x="723" y="317"/>
      <point x="661" y="245"/>
      <point x="472" y="245" type="curve" smooth="yes"/>
      <point x="152" y="245" type="line"/>
      <point x="152" y="170" type="line"/>
      <point x="457" y="170" type="line" smooth="yes"/>
      <point x="751" y="170"/>
      <point x="825" y="287"/>
      <point x="825" y="445" type="curve" smooth="yes"/>
      <point x="825" y="604"/>
      <point x="750" y="720"/>
      <point x="457" y="720" type="curve" smooth="yes"/>
      <point x="152" y="720" type="line"/>
    </contour>
  </outline>
</glyph>
<glyph name="S" format="2">
  <advance width="898"/>
  <unicode hex="0053"/>
  <outline>
    <contour>
      <point x="826" y="193" type="curve" smooth="yes"/>
      <point x="826" y="321"/>
      <point x="748" y="372"/>
      <point x="528" y="399" type="curve" smooth="yes"/>
      <point x="399" y="416" type="line" smooth="yes"/>
      <point x="257" y="436"/>
      <point x="182" y="464"/>
      <point x="182" y="537" type="curve" smooth="yes"/>
      <point x="182" y="606"/>
      <point x="254" y="651"/>
      <point x="424" y="651" type="curve" smooth="yes"/>
      <point x="470" y="651" type="line" smooth="yes"/>
      <point x="611" y="651"/>
      <point x="712" y="626"/>
      <point x="793" y="590" type="curve"/>
      <point x="816" y="664" type="line"/>
      <point x="732" y="701"/>
      <point x="613" y="729"/>
      <point x="481" y="729" type="curve" smooth="yes"/>
      <point x="446" y="729" type="line" smooth="yes"/>
      <point x="199" y="729"/>
      <point x="88" y="657"/>
      <point x="88" y="529" type="curve" smooth="yes"/>
      <point x="88" y="409"/>
      <point x="173" y="355"/>
      <point x="384" y="327" type="curve" smooth="yes"/>
      <point x="511" y="310" type="line" smooth="yes"/>
      <point x="664" y="287"/>
      <point x="731" y="267"/>
      <point x="731" y="190" type="curve" smooth="yes"/>
      <point x="731" y="115"/>
      <point x="654" y="69"/>
      <point x="455" y="69" type="curve" smooth="yes"/>
      <point x="411" y="69" type="line" smooth="yes"/>
      <point x="281" y="69"/>
      <point x="173" y="94"/>
      <point x="88" y="131" type="curve"/>
      <point x="68" y="57" type="line"/>
      <point x="156" y="19"/>
      <point x="280" y="-9"/>
      <point x="400" y="-9" type="curve" smooth="yes"/>
      <point x="437" y="-9" type="line" smooth="yes"/>
      <point x="718" y="-9"/>
      <point x="826" y="70"/>
    </contour>
  </outline>
</glyph>
<glyph name="T" format="2">
  <advance width="889"/>
  <unicode hex="0054"/>
  <outline>
    <contour>
      <point x="390" y="0" type="line"/>
      <point x="498" y="0" type="line"/>
      <point x="498" y="720" type="line"/>
      <point x="390" y="720" type="line"/>
    </contour>
    <contour>
      <point x="33" y="634" type="line"/>
      <point x="856" y="634" type="line"/>
      <point x="856" y="720" type="line"/>
      <point x="33" y="720" type="line"/>
    </contour>
  </outline>
</glyph>
<glyph name="U" format="2">
  <advance width="935"/>
  <unicode hex="0055"/>
  <outline>
    <contour>
      <point x="467" y="-10" type="curve" smooth="yes"/>
      <point x="702" y="-10"/>
      <point x="845" y="88"/>
      <point x="845" y="307" type="curve" smooth="yes"/>
      <point x="845" y="720" type="line"/>
      <point x="735" y="720" type="line"/>
      <point x="735" y="303" type="line" smooth="yes"/>
      <point x="735" y="139"/>
      <point x="632" y="75"/>
      <point x="467" y="75" type="curve" smooth="yes"/>
      <point x="303" y="75"/>
      <point x="199" y="139"/>
      <point x="199" y="303" type="curve" smooth="yes"/>
      <point x="199" y="720" type="line"/>
      <point x="90" y="720" type="line"/>
      <point x="90" y="307" type="line" smooth="yes"/>
      <point x="90" y="88"/>
      <point x="231" y="-10"/>
    </contour>
  </outline>
</glyph>
<glyph name="V" format="2">
  <advance width="907"/>
  <unicode hex="0056"/>
  <outline>
    <contour>
      <point x="878" y="720" type="line"/>
      <point x="783" y="720" type="line"/>
      <point x="455" y="0" type="line"/>
      <point x="539" y="0" type="line"/>
    </contour>
    <contour>
      <point x="153" y="720" type="line"/>
      <point x="29" y="720" type="line"/>
      <point x="370" y="0" type="line"/>
      <point x="486" y="0" type="line"/>
    </contour>
    <contour>
      <point x="522" y="82" type="line"/>
      <point x="398" y="82" type="line"/>
      <point x="398" y="0" type="line"/>
      <point x="522" y="0" type="line"/>
    </contour>
  </outline>
</glyph>
<glyph name="W" format="2">
  <advance width="1058"/>
  <unicode hex="0057"/>
  <outline>
    <contour>
      <point x="1028" y="720" type="line"/>
      <point x="928" y="720" type="line"/>
      <point x="745" y="104" type="line"/>
      <point x="759" y="104" type="line"/>
      <point x="569" y="720" type="line"/>
      <point x="495" y="720" type="line"/>
      <point x="314" y="99" type="line"/>
      <point x="331" y="99" type="line"/>
      <point x="140" y="720" type="line"/>
      <point x="29" y="720" type="line"/>
      <point x="250" y="0" type="line"/>
      <point x="350" y="0" type="line"/>
      <point x="530" y="608" type="line"/>
      <point x="509" y="608" type="line"/>
      <point x="705" y="0" type="line"/>
      <point x="812" y="0" type="line"/>
    </contour>
  </outline>
</glyph>
<glyph name="X" format="2">
  <advance width="831"/>
  <unicode hex="0058"/>
  <outline>
    <contour>
      <point x="671" y="0" type="line"/>
      <point x="803" y="0" type="line"/>
      <point x="455" y="389" type="line"/>
      <point x="168" y="720" type="line"/>
      <point x="36" y="720" type="line"/>
      <point x="371" y="349" type="line"/>
    </contour>
    <contour>
      <point x="30" y="-1" type="line"/>
      <point x="138" y="0" type="line"/>
      <point x="417" y="338" type="line"/>
      <point x="460" y="341" type="line"/>
      <point x="794" y="720" type="line"/>
      <point x="685" y="720" type="line"/>
      <point x="410" y="394" type="line"/>
      <point x="364" y="389" type="line"/>
    </contour>
  </outline>
</glyph>
<glyph name="Y" format="2">
  <advance width="814"/>
  <unicode hex="0059"/>
  <outline>
    <contour>
      <point x="790" y="720" type="line"/>
      <point x="692" y="720" type="line"/>
      <point x="393" y="204" type="line"/>
      <point x="457" y="190" type="line"/>
    </contour>
    <contour>
      <point x="143" y="720" type="line"/>
      <point x="24" y="720" type="line"/>
      <point x="356" y="190" type="line"/>
      <point x="449" y="204" type="line"/>
    </contour>
    <contour>
      <point x="461" y="250" type="line"/>
      <point x="353" y="250" type="line"/>
      <point x="353" y="0" type="line"/>
      <point x="461" y="0" type="line"/>
    </contour>
  </outline>
</glyph>
<glyph name="Z" format="2">
  <advance width="922"/>
  <unicode hex="005A"/>
  <outline>
    <contour>
      <point x="86" y="82" type="line"/>
      <point x="205" y="56" type="line"/>
      <point x="835" y="638" type="line"/>
      <point x="717" y="664" type="line"/>
    </contour>
    <contour>
      <point x="86" y="638" type="line"/>
      <point x="835" y="638" type="line"/>
      <point x="835" y="720" type="line"/>
      <point x="86" y="720" type="line"/>
    </contour>
    <contour>
      <point x="86" y="0" type="line"/>
      <point x="835" y="0" type="line"/>
      <point x="835" y="82" type="line"/>
      <point x="86" y="82" type="line"/>
    </contour>
  </outline>
</glyph>
